<svg width="37" height="26" viewBox="0 0 37 26" fill="none" xmlns="http://www.w3.org/2000/svg">
<g clip-path="url(#clip0_291_65)">
<path d="M0.120911 0.11972C8.83812 0.131692 17.553 0.141269 26.2702 0.153241V6.59398C26.7987 5.09274 28.3677 3.7591 29.522 2.70081C30.4558 1.84364 31.5579 1.16365 32.7737 0.718302C33.5867 0.421406 34.4494 0.227465 35.3477 0.155635H36.0279V25.8827C34.8879 25.8827 33.7929 25.6887 32.7761 25.332C31.5626 24.9082 30.4605 24.2545 29.5243 23.4213C28.3251 22.3582 27.3912 21.0078 26.839 19.4755C26.4716 18.4603 26.2726 17.3637 26.2726 16.2216V14.6437C26.2726 13.8488 25.7156 13.188 24.9737 13.0347C24.8671 13.0132 24.7581 13.0012 24.6467 13.0012C24.5353 13.0012 24.4262 13.0132 24.3196 13.0347C23.5801 13.188 23.0208 13.8512 23.0208 14.6437V25.8803C21.8808 25.8803 20.7858 25.6863 19.769 25.3296C18.5555 24.9058 17.4534 24.2521 16.5172 23.4189C15.318 22.3558 14.3842 21.0054 13.8319 19.4731C13.4646 18.4579 13.2655 17.3613 13.2655 16.2192V14.6413C13.2655 13.8464 12.7085 13.1856 11.9667 13.0323C11.86 13.0108 11.751 12.9988 11.6396 12.9988C11.5282 12.9988 11.4192 13.0108 11.3125 13.0323C10.573 13.1856 10.0137 13.8488 10.0137 14.6413V25.8779C8.87368 25.8779 7.77869 25.684 6.76192 25.3272C5.54843 24.9034 4.44634 24.2498 3.51015 23.4165C2.31088 22.3534 1.37706 21.003 0.824829 19.4707C0.457464 18.4555 0.258376 17.3589 0.258376 16.2168V6.59159C0.208604 4.4343 0.163572 2.27701 0.120911 0.11972Z" fill="#FAF9F6" stroke="#FAF9F6" stroke-miterlimit="10"/>
</g>
<defs>
<clipPath id="clip0_291_65">
<rect width="36.1463" height="26" fill="white"/>
</clipPath>
</defs>
</svg>
